PathFileType	4	(x/y/z)	S01_PSF_T09.trc
DataRate	CameraRate	NumFrames	NumMarkers	Units	OrigDataRate	OrigDataStartFrame	OrigNumFrames
240	240	9	51	mm	240	151	402
Frame#	Time	Sternum			R.Acromium			L.Acromium			Top.Head			R.ASIS			L.ASIS			R.PSIS			L.PSIS			R.Great.Tro			L.Great.Tro			R.Iliac.Crest			L.Iliac.Crest			V.Sacral			R.Thigh.Upper.Post			R.Thigh.Lower.Ant			R.Thigh.Lower.Post			R.Thigh.Upper.Ant			R.Knee.Lat			R.Knee.Med			R.Shank.Upper.Post			R.Shank.Lower.Ant			R.Shank.Lower.Post			R.Shank.Upper.Ant			R.Ankle.Lat			R.Ankle.Med			R.Heel.Upper			R.Heel.Med			R.Heel.Lat			R.Toe.Lat			R.Toe.Med			R.Toe.Tip			L.Thigh.Upper.Post			L.Thigh.Lower.Ant			L.Thigh.Lower.Post			L.Thigh.Upper.Ant			L.Knee.Lat			L.Knee.Med			L.Shank.Upper.Post			L.Shank.Lower.Ant			L.Shank.Lower.Post			L.Shank.Upper.Ant			L.Ankle.Lat			L.Ankle.Med			L.Heel.Upper			L.Heel.Med			L.Heel.Lat			L.Toe.Lat			L.Toe.Med			L.Toe.Tip			Cervical.Spine			Back			
		X1	Y1	Z1	X2	Y2	Z2	X3	Y3	Z3	X4	Y4	Z4	X5	Y5	Z5	X6	Y6	Z6	X7	Y7	Z7	X8	Y8	Z8	X9	Y9	Z9	X10	Y10	Z10	X11	Y11	Z11	X12	Y12	Z12	X13	Y13	Z13	X14	Y14	Z14	X15	Y15	Z15	X16	Y16	Z16	X17	Y17	Z17	X18	Y18	Z18	X19	Y19	Z19	X20	Y20	Z20	X21	Y21	Z21	X22	Y22	Z22	X23	Y23	Z23	X24	Y24	Z24	X25	Y25	Z25	X26	Y26	Z26	X27	Y27	Z27	X28	Y28	Z28	X29	Y29	Z29	X30	Y30	Z30	X31	Y31	Z31	X32	Y32	Z32	X33	Y33	Z33	X34	Y34	Z34	X35	Y35	Z35	X36	Y36	Z36	X37	Y37	Z37	X38	Y38	Z38	X39	Y39	Z39	X40	Y40	Z40	X41	Y41	Z41	X42	Y42	Z42	X43	Y43	Z43	X44	Y44	Z44	X45	Y45	Z45	X46	Y46	Z46	X47	Y47	Z47	X48	Y48	Z48	X49	Y49	Z49	X50	Y50	Z50	X51	Y51	Z51	

151	0.625	-540.49	1262.9	326.48	-659.65	1496.3	523.12	-682.01	1537.2	197.07	-665.86	1835.7	382.03	-578.02	1015	465.75	-587.99	1009.9	200.61	-821.72	1041	383.35	-828.39	1041.6	280.88	-645.03	959.34	549.13	-701.2	953.19	126.56	-667.61	1102	538.59	-695.93	1096.9	134.77	-837.36	1005	329.97	-555.87	662.3	513.6	-468	620.71	477.16	-524.89	581.89	486.36	-496.18	703.18	504.54	-483.34	531.31	476.79	-489.6	539.57	334.05	-523.98	367.35	494.57	-461.15	290.14	445.77	-524.46	297.46	481.51	-463.89	361.11	465.71	-519.67	100.65	438.47	-489.63	108.92	344.96	-589.92	71.862	376.96	-571.94	43.43	348.17	-578.2	41.926	412.71	-387.37	36.357	472.7	-354.47	41.801	348.28	-292.28	62.103	403.51	-757.11	677.31	143.54	-675.62	603.03	119.51	-747.39	585.72	150.97	-694.76	698.08	114.78	-714.41	503.24	122.21	-655.93	484.63	258.34	-842.71	443.61	118.23	-864.38	336.58	139.25	-900.13	390.34	128.66	-808.53	388.49	126.01	-1058.3	250.91	172.11	-1025	233.91	265.65	-1116.5	294.73	228.74	-1127.4	274.45	265.77	-1138.6	273.35	203.37	-1047.9	91.411	156.21	-1014.5	77.65	274.7	-973.45	35.534	217.75	-760.34	1571.7	370.75	-842.43	1260	360.53
152	0.62917	-534.95	1264.1	326.71	-653.44	1497.4	523.74	-676.8	1538.5	197.85	-660.53	1836.8	383.11	-572.1	1016.1	466.2	-582.63	1011	201.11	-815.96	1042.1	384.31	-822.91	1042.3	281.85	-638.93	960.48	549.7	-695.62	953.98	127.32	-661.8	1103.1	539.34	-691.08	1097.7	135.5	-831.68	1005.8	331.08	-551.8	662.68	513.94	-464.26	620.49	477.38	-521.43	582.06	486.65	-491.82	703.16	504.83	-480.37	531.14	477.02	-486.69	539.51	334.28	-522.2	367.46	494.69	-459.82	289.88	445.9	-523.1	297.58	481.62	-462.12	360.85	465.89	-519.51	100.71	438.42	-489.49	108.95	344.91	-589.88	71.917	376.99	-571.9	43.495	348.18	-578.16	41.969	412.73	-387.29	36.342	472.69	-354.44	41.651	348.22	-292.22	61.829	403.45	-747.95	677.32	143.65	-665.75	603.91	119.04	-737.17	585.81	150.95	-685.85	698.78	114.66	-703.19	503.97	121.69	-644.4	485.37	258.05	-831.31	445.55	117.86	-853.92	338.74	139.12	-889.22	392.82	128.5	-797.65	390.14	125.74	-1048.7	255.67	172.35	-1015.2	237.55	265.62	-1105.8	300.2	229.57	-1117	279.97	266.68	-1128.5	279.33	204.19	-1041.3	95.752	155.4	-1007.1	80.305	273.43	-967.52	37.025	215.99	-754.7	1572.8	371.76	-836.59	1261.1	361.66
153	0.63333	-529.43	1265.2	326.91	-647.25	1498.5	524.34	-671.62	1539.7	198.6	-655.19	1838	384.14	-566.21	1017.2	466.63	-577.32	1012.2	201.56	-810.22	1043.2	385.28	-817.48	1043.1	282.84	-632.89	961.59	550.25	-690.1	954.83	128.04	-656.02	1104.2	540.09	-686.33	1098.5	136.19	-826.06	1006.7	332.2	-547.84	663.07	514.25	-460.65	620.27	477.59	-518.09	582.23	486.92	-487.58	703.13	505.1	-477.54	530.96	477.24	-483.9	539.43	334.52	-520.52	367.56	494.81	-458.57	289.64	446.03	-521.82	297.69	481.74	-460.44	360.6	466.06	-519.37	100.76	438.38	-489.35	108.98	344.87	-589.85	71.97	377.02	-571.86	43.556	348.19	-578.13	42.011	412.75	-387.21	36.335	472.69	-354.41	41.536	348.17	-292.17	61.597	403.42	-738.78	677.44	143.8	-655.9	604.89	118.61	-726.95	586.02	151	-676.92	699.57	114.56	-692	504.85	121.22	-632.95	486.27	257.85	-819.93	447.55	117.55	-843.39	340.94	139.03	-878.28	395.31	128.37	-786.74	391.87	125.52	-1038.9	260.31	172.65	-1005.2	241.08	265.61	-1095	305.33	230.49	-1106.4	285.1	267.66	-1118.2	284.96	205.11	-1034.1	100.11	154.52	-999.17	82.979	272.07	-960.96	38.773	214.1	-749.06	1573.9	372.75	-830.82	1262.2	362.79
154	0.6375	-523.94	1266.4	327.09	-641.08	1499.6	524.91	-666.48	1541	199.31	-649.85	1839.1	385.12	-560.35	1018.3	467.04	-572.04	1013.3	201.96	-804.53	1044.4	386.26	-812.09	1043.9	283.83	-626.91	962.68	550.78	-684.64	955.76	128.75	-650.25	1105.3	540.85	-681.67	1099.3	136.85	-820.49	1007.7	333.33	-544.01	663.46	514.53	-457.16	620.03	477.8	-514.88	582.4	487.18	-483.46	703.09	505.35	-474.82	530.79	477.46	-481.23	539.34	334.75	-518.92	367.66	494.93	-457.4	289.4	446.17	-520.61	297.8	481.86	-458.85	360.36	466.24	-519.25	100.82	438.34	-489.22	109.02	344.84	-589.83	72.022	377.05	-571.83	43.615	348.2	-578.09	42.053	412.77	-387.15	36.335	472.69	-354.39	41.451	348.13	-292.13	61.399	403.39	-729.6	677.67	143.99	-646.07	605.98	118.22	-716.74	586.37	151.11	-667.98	700.45	114.47	-680.85	505.86	120.8	-621.59	487.33	257.72	-808.57	449.6	117.3	-832.78	343.18	138.98	-867.31	397.8	128.29	-775.81	393.68	125.35	-1029	264.8	173.01	-995	244.48	265.64	-1084.2	310.1	231.51	-1095.7	289.81	268.69	-1107.9	290.21	206.1	-1026.4	104.43	153.59	-990.69	85.652	270.63	-953.75	40.753	212.11	-743.45	1575.1	373.69	-825.09	1263.4	363.92
155	0.64167	-518.48	1267.6	327.24	-634.94	1500.7	525.45	-661.38	1542.2	199.98	-644.5	1840.3	386.05	-554.52	1019.4	467.43	-566.8	1014.5	202.32	-798.86	1045.5	387.23	-806.74	1044.7	284.83	-621	963.73	551.3	-679.23	956.75	129.43	-644.5	1106.4	541.6	-677.08	1100	137.49	-814.96	1008.7	334.46	-540.29	663.85	514.8	-453.78	619.79	478	-511.78	582.56	487.44	-479.44	703.05	505.59	-472.23	530.61	477.68	-478.67	539.25	334.99	-517.4	367.75	495.05	-456.28	289.19	446.31	-519.47	297.91	481.98	-457.35	360.14	466.42	-519.13	100.87	438.32	-489.08	109.07	344.82	-589.81	72.076	377.09	-571.8	43.674	348.22	-578.06	42.097	412.79	-387.1	36.337	472.69	-354.37	41.39	348.1	-292.09	61.227	403.38	-720.41	678.01	144.21	-636.27	607.17	117.86	-706.53	586.84	151.28	-659.03	701.42	114.4	-669.74	507.02	120.44	-610.32	488.55	257.66	-797.26	451.7	117.11	-822.12	345.44	138.96	-856.33	400.28	128.25	-764.87	395.58	125.22	-1018.9	269.11	173.43	-984.65	247.74	265.69	-1073.3	314.51	232.59	-1085	294.11	269.77	-1097.4	295.07	207.16	-1018.1	108.7	152.62	-981.68	88.3	269.12	-945.9	42.929	210.03	-737.85	1576.2	374.61	-819.4	1264.5	365.04
156	0.64583	-513.04	1268.8	327.37	-628.83	1501.8	525.96	-656.31	1543.5	200.61	-639.13	1841.5	386.92	-548.73	1020.4	467.81	-561.58	1015.8	202.64	-793.23	1046.7	388.21	-801.43	1045.6	285.82	-615.16	964.75	551.79	-673.85	957.82	130.09	-638.74	1107.4	542.35	-672.55	1100.8	138.1	-809.47	1009.7	335.58	-536.67	664.25	515.05	-450.51	619.53	478.21	-508.78	582.73	487.7	-475.52	703	505.83	-469.74	530.44	477.91	-476.22	539.15	335.23	-515.95	367.85	495.19	-455.22	288.99	446.45	-518.38	298.02	482.1	-455.91	359.93	466.61	-519.02	100.93	438.3	-488.95	109.13	344.81	-589.78	72.132	377.12	-571.77	43.734	348.23	-578.04	42.143	412.81	-387.05	36.339	472.7	-354.35	41.348	348.07	-292.06	61.076	403.38	-711.23	678.45	144.45	-626.49	608.47	117.53	-696.34	587.44	151.5	-650.08	702.48	114.35	-658.69	508.32	120.13	-599.13	489.91	257.65	-786	453.84	116.99	-811.41	347.72	138.96	-845.35	402.76	128.26	-753.94	397.55	125.13	-1008.7	273.22	173.89	-974.14	250.83	265.77	-1062.4	318.55	233.73	-1074.1	297.98	270.87	-1086.9	299.52	208.27	-1009.4	112.85	151.63	-972.16	90.9	267.58	-937.42	45.262	207.9	-732.26	1577.4	375.49	-813.77	1265.7	366.16
157	0.65	-507.64	1270	327.47	-622.76	1503	526.45	-651.29	1544.7	201.21	-633.76	1842.7	387.75	-542.98	1021.3	468.16	-556.4	1017	202.93	-787.63	1047.9	389.18	-796.13	1046.5	286.81	-609.4	965.74	552.26	-668.51	958.95	130.72	-632.98	1108.5	543.07	-668.04	1101.6	138.69	-804.02	1010.7	336.69	-533.16	664.64	515.29	-447.35	619.28	478.42	-505.89	582.91	487.95	-471.7	702.94	506.06	-467.36	530.28	478.13	-473.86	539.05	335.48	-514.57	367.94	495.33	-454.21	288.8	446.61	-517.34	298.13	482.23	-454.55	359.73	466.8	-518.92	100.98	438.28	-488.81	109.19	344.81	-589.76	72.192	377.16	-571.75	43.796	348.25	-578.01	42.193	412.83	-387.01	36.34	472.71	-354.33	41.322	348.06	-292.03	60.94	403.39	-702.06	679	144.73	-616.74	609.87	117.23	-686.16	588.15	151.77	-641.12	703.62	114.31	-647.71	509.74	119.87	-588.02	491.42	257.68	-774.8	456.03	116.94	-800.67	350.01	138.98	-834.38	405.22	128.32	-743.01	399.59	125.07	-998.46	277.11	174.39	-963.46	253.76	265.87	-1051.6	322.21	234.9	-1063.1	301.44	271.97	-1076.3	303.56	209.41	-1000.2	116.86	150.62	-962.16	93.431	266.02	-928.33	47.711	205.74	-726.69	1578.6	376.34	-808.18	1266.9	367.27
158	0.65417	-502.26	1271.2	327.56	-616.72	1504.2	526.91	-646.31	1545.9	201.78	-628.37	1843.9	388.52	-537.26	1022.3	468.5	-551.23	1018.3	203.2	-782.05	1049.2	390.13	-790.86	1047.4	287.79	-603.7	966.7	552.72	-663.2	960.15	131.34	-627.21	1109.5	543.78	-663.56	1102.4	139.27	-798.6	1011.8	337.78	-529.74	665.04	515.52	-444.28	619.02	478.63	-503.1	583.09	488.21	-467.97	702.87	506.3	-465.07	530.12	478.36	-471.58	538.95	335.73	-513.25	368.03	495.49	-453.25	288.63	446.77	-516.35	298.24	482.37	-453.24	359.55	467	-518.82	101.04	438.28	-488.67	109.27	344.82	-589.74	72.258	377.2	-571.73	43.86	348.27	-577.98	42.249	412.85	-386.97	36.339	472.72	-354.31	41.308	348.05	-292	60.816	403.41	-692.9	679.64	145.02	-607.03	611.37	116.97	-676	588.99	152.07	-632.18	704.84	114.28	-636.79	511.3	119.66	-576.98	493.06	257.74	-763.67	458.25	116.96	-789.89	352.31	139.01	-823.43	407.65	128.44	-732.1	401.68	125.04	-988.06	280.76	174.92	-952.64	256.5	265.99	-1040.6	325.49	236.09	-1052.1	304.47	273.06	-1065.7	307.18	210.57	-990.49	120.69	149.63	-951.7	95.871	264.47	-918.66	50.233	203.6	-721.15	1579.9	377.15	-802.63	1268.1	368.37
159	0.65833	-496.9	1272.4	327.63	-610.72	1505.4	527.35	-641.38	1547.1	202.32	-622.97	1845.1	389.24	-531.57	1023.2	468.83	-546.08	1019.6	203.45	-776.49	1050.4	391.07	-785.59	1048.5	288.76	-598.09	967.62	553.16	-657.9	961.41	131.93	-621.44	1110.5	544.45	-659.08	1103.3	139.83	-793.22	1013	338.83	-526.4	665.44	515.75	-441.3	618.75	478.86	-500.39	583.28	488.46	-464.34	702.79	506.54	-462.87	529.97	478.6	-469.39	538.85	335.99	-511.99	368.13	495.65	-452.34	288.47	446.94	-515.4	298.35	482.51	-452	359.38	467.2	-518.72	101.1	438.28	-488.53	109.36	344.84	-589.72	72.329	377.24	-571.71	43.929	348.29	-577.95	42.31	412.87	-386.93	36.333	472.74	-354.29	41.305	348.05	-291.97	60.7	403.44	-683.76	680.38	145.32	-597.35	612.96	116.73	-665.86	589.92	152.39	-623.24	706.14	114.26	-625.94	512.96	119.5	-566	494.82	257.83	-752.61	460.49	117.06	-779.08	354.6	139.05	-812.49	410.05	128.6	-721.2	403.83	125.04	-977.54	284.14	175.47	-941.67	259.06	266.13	-1029.7	328.39	237.28	-1041	307.09	274.11	-1055	310.37	211.72	-980.36	124.3	148.65	-940.81	98.202	262.94	-908.43	52.785	201.51	-715.62	1581.1	377.93	-797.12	1269.3	369.47
